<?xml version="1.0" encoding="UTF-8"?>
<!-- Generated by Pixelmator Pro 3.5.4 -->
<svg width="936" height="957" viewBox="0 0 936 957" xmlns="http://www.w3.org/2000/svg">
    <path id="Shape" fill="#000000" fill-rule="evenodd" stroke="none" d="M 394.5 956.907471 C 387.900024 956.859619 378.924683 956.17511 374.554871 955.38623 C 370.184998 954.597412 361.859985 952.369751 356.054871 950.435913 C 350.249695 948.502075 341.450012 944.93573 336.5 942.510681 C 331.549988 940.085571 323 934.64856 317.5 930.428223 C 312 926.208008 305.563599 921.87854 303.196899 920.807251 C 299.243469 919.0177 297.489014 918.91687 281.602844 919.566162 C 270.338501 920.026489 260.379211 919.861023 253.02887 919.091431 C 246.823242 918.44165 237.865601 917.24707 233.122986 916.436768 C 228.38031 915.626587 220.224976 913.78125 215 912.336182 C 209.775024 910.891113 202.298462 908.207703 198.385437 906.373047 C 194.472412 904.538452 188.3974 900.931641 184.885406 898.357971 C 181.373444 895.784302 175.206757 890.964905 171.181702 887.648254 C 167.156647 884.331604 160.956177 878.103943 157.402893 873.80896 C 150.942352 866 150.942352 866 141.221161 865.985229 C 135.874542 865.977051 128.575012 865.288391 125 864.454773 C 121.424988 863.621155 113.94751 860.724121 108.383331 858.016968 C 100.417877 854.141418 96.501404 851.436707 89.965027 845.297363 C 85.399139 841.008789 79.231354 834.217163 76.258881 830.204773 C 73.286407 826.192383 68.571106 819.217407 65.780426 814.704773 C 62.989777 810.192139 59.244385 803.349976 57.457367 799.5 C 55.670319 795.650024 52.991882 789.051514 51.505249 784.836731 C 49.537994 779.259399 47.329041 775.448669 43.389862 770.836731 C 40.413025 767.351563 36.661896 761.899353 35.053955 758.720825 C 33.446045 755.542297 31.112579 748.567261 29.868469 743.220825 C 28.09198 735.586426 27.615601 730.602417 27.649048 720 C 27.682587 709.362366 28.162964 704.700073 29.914703 698.010742 C 31.13739 693.341614 33.527924 686.913269 35.22699 683.725525 C 36.926056 680.53772 39.819702 676.609436 41.657349 674.995972 C 43.494995 673.382507 47.432159 670.505615 50.406616 668.602905 C 53.381073 666.700134 58.443909 663.937927 61.657349 662.4646 C 64.870819 660.991272 69.524994 658.99054 72 658.018555 C 74.475006 657.046509 79.738831 655.519714 83.697418 654.62561 C 88.832306 653.46582 95.853088 652.998901 108.197418 652.996277 C 123.349609 652.992981 125.872833 652.760437 128.5 651.124878 C 130.149994 650.097717 136.225006 645.106384 142 640.033142 C 147.774994 634.9599 157.450012 627.057861 163.5 622.473145 C 169.549988 617.888367 178.549988 611.649231 183.5 608.608398 C 188.450012 605.567505 194.521179 601.824158 196.991455 600.289795 C 199.461731 598.755371 201.618469 596.784058 201.78418 595.908997 C 201.986633 594.8396 197.563416 591.19397 188.292725 584.789368 C 180.706726 579.548645 169.774994 572.550293 164 569.237427 C 158.225006 565.924622 147.312592 560.240723 139.750183 556.606567 C 132.187805 552.972412 119.137787 546.694641 110.750183 542.655884 C 102.362579 538.617126 88.524994 531.926453 80 527.787659 C 71.475006 523.648926 60.319824 517.43689 55.210724 513.983154 C 49.916565 510.404358 41.175934 502.975708 34.887451 496.710449 C 28.818756 490.664124 21.602753 482.518311 18.851868 478.608582 C 16.100983 474.698853 12.335876 468.349976 10.484955 464.5 C 8.634033 460.650024 5.969666 453.51886 4.564148 448.653015 C 3.15863 443.787231 1.471069 434.649048 0.814087 428.346069 C -0.128723 419.301453 -0.115112 414.75946 0.878723 406.796204 C 1.571289 401.246826 3.052338 394.262451 4.169922 391.275391 C 5.287506 388.288391 7.928711 382.616943 10.039246 378.672241 C 12.14978 374.727478 16.032928 368.575012 18.668488 365 C 21.304047 361.424988 27.744324 354.214783 32.980194 348.977356 C 38.216095 343.739868 47.457092 334.918518 53.515747 329.374329 C 61.905334 321.697144 65.192719 317.943665 67.304993 313.629822 C 69.012146 310.143372 70.291962 305.569336 70.633759 301.732849 C 70.959015 298.082458 70.561554 291.770996 69.67453 286.5 C 68.841522 281.550049 66.274628 269.400024 63.970337 259.5 C 60.54483 244.782837 59.688263 239.078247 59.273712 228.221436 C 58.844055 216.969116 59.093445 213.535645 60.908081 205.721436 C 62.085846 200.649658 64.508698 192.900024 66.292175 188.5 C 68.075623 184.099976 72.033325 176.675049 75.087036 172 C 78.140717 167.324951 84.432892 159.486572 89.069611 154.581299 C 93.706329 149.676025 100.367554 143.290405 103.872345 140.390869 C 107.377136 137.491455 113.408386 133.456665 117.275177 131.424683 C 121.141968 129.392822 126.599396 127.133179 129.402832 126.403442 C 132.206268 125.673706 139.623474 124.595215 145.885529 124.006836 C 154.20636 123.225098 162.416138 123.254395 176.385529 124.115845 C 193.74353 125.186401 196.047119 125.135254 201.453857 123.560181 C 206.395569 122.120483 208.435608 120.772461 213.453857 115.630737 C 217.120605 111.873779 221.991516 105.119507 225.831055 98.467896 C 229.31311 92.435547 234.405518 83.449951 237.147522 78.5 C 239.889465 73.550049 244.59729 65.821045 247.609253 61.324585 C 250.621216 56.828125 255.897888 50.528198 259.335205 47.324585 C 262.772461 44.121094 268.490723 39.543457 272.042419 37.1521 C 275.594055 34.760742 284.799988 29.722046 292.5 25.954956 C 300.200012 22.187988 309.875 17.984497 314 16.614014 C 318.125 15.24353 325.390442 13.358643 330.145447 12.425415 C 336.306702 11.216064 341.766235 10.866333 349.145447 11.208008 C 357.148926 11.578613 361.429993 12.358276 368 14.641724 C 372.674988 16.266602 387.75 23.413818 401.5 30.524414 C 415.25 37.63501 429.650024 44.544678 433.5 45.87915 C 438.593506 47.644775 442.678833 48.313354 448.5 48.333984 C 454.238342 48.35437 458.150269 47.758423 462.337341 46.226196 C 465.547852 45.05127 472.522888 41.135864 477.837341 37.525269 C 483.151794 33.914673 491.325012 28.268677 496 24.978638 C 500.674988 21.688477 508.775024 16.794556 514 14.103149 C 519.224976 11.411743 527.268433 8.0271 531.874329 6.581787 C 536.480225 5.136597 544.978882 3.251343 550.760254 2.392456 C 556.691284 1.51123 568.265015 0.804565 577.320007 0.770508 C 586.146484 0.737427 596.8526 1.243774 601.111389 1.89563 C 605.370117 2.547607 611.528931 4.167725 614.797546 5.49585 C 618.066162 6.823975 623.611328 9.580811 627.120239 11.62207 C 630.629089 13.66333 635.974976 17.227661 639 19.542725 C 642.025024 21.857666 646.764221 26.170166 649.531616 29.125977 C 652.29895 32.081665 656.61145 37.199951 659.114868 40.5 C 661.618225 43.800049 665.963562 50.099976 668.771057 54.5 C 671.578552 58.900024 675.456543 64.345825 677.388855 66.601807 C 679.321106 68.857788 683.386902 72.004517 686.42395 73.594604 C 691.149719 76.068848 693.066833 76.483154 699.7229 76.468262 C 704.000244 76.45874 716.623047 76.052979 727.773438 75.56665 C 742.885498 74.907593 750.603394 75.008423 758.089355 75.962402 C 764.047852 76.72168 772.527222 78.744385 778.940063 80.936279 C 784.884521 82.968018 793.209961 86.610962 797.440918 89.031738 C 801.671997 91.452515 808.591064 96.648926 812.816895 100.579346 C 817.042603 104.509766 823.119019 111.369019 826.320068 115.822144 C 829.521118 120.275269 833.835815 127.199463 835.908325 131.209351 C 837.980835 135.219238 841.208008 143 843.079956 148.5 C 846.483521 158.5 846.483521 158.5 846.491821 190 C 846.5 221.5 846.5 221.5 849.773804 227.5 C 851.574463 230.800049 856.74939 237.382568 861.273804 242.127808 C 865.798218 246.873047 874.449951 255.172485 880.5 260.570923 C 886.550049 265.969238 895.468872 274.236816 900.319702 278.943115 C 905.170532 283.649414 911.329224 290.401306 914.005615 293.947327 C 916.682129 297.493408 920.440796 303.610535 922.358276 307.540955 C 924.275757 311.471375 927.218262 319.145081 928.897217 324.593628 C 930.57605 330.042114 932.5979 338.325012 933.390137 343 C 934.182251 347.674988 935.136963 356.900024 935.511719 363.5 C 935.907471 370.471375 935.722168 380.528625 935.06958 387.5 C 934.434326 394.284119 932.84021 403.19458 931.401978 408 C 930.002808 412.674988 926.796509 421.224976 924.2771 427 C 921.75769 432.775024 917.329712 441.109314 914.437256 445.520691 C 911.544678 449.932068 906.722534 455.863831 903.721191 458.702393 C 900.719849 461.540955 894.26709 466.481628 889.381714 469.681702 C 884.496338 472.881775 874.424438 478.741699 866.999634 482.703735 C 859.574829 486.665833 840.675049 496.191284 825 503.871521 C 809.324951 511.551697 785.350708 523.246521 771.723633 529.860046 C 758.09668 536.473572 738.383179 546.409912 727.915894 551.940857 C 717.448486 557.471802 706.6604 563.453064 703.942139 565.232544 C 701.010986 567.151428 699 569.209473 699 570.290222 C 699 571.476196 700.484009 572.76062 703.25 573.968811 C 705.587524 574.989746 712 577.490479 717.5 579.525879 C 723 581.561279 732.858154 585.947388 739.406982 589.272766 C 745.955933 592.598145 758.555908 600.16626 767.406982 606.090759 C 776.258179 612.01532 787.220337 619.856506 791.767456 623.515686 C 796.314575 627.174866 805.211792 634.900879 811.539063 640.68457 C 818.566895 647.108704 824.299438 651.533936 826.271606 652.057495 C 828.047241 652.528809 834.668457 653.173096 840.985352 653.489258 C 847.302246 653.80542 856.527344 654.916687 861.485352 655.958801 C 866.443359 657.000854 874.550049 659.27417 879.5 661.01062 C 884.449951 662.747009 890.965942 665.542236 893.97998 667.222168 C 896.993896 668.9021 901.757813 671.974182 904.566284 674.049011 C 907.374878 676.123779 911.608276 679.999023 913.973755 682.660706 C 916.339355 685.322327 920.039917 691.151794 922.197388 695.615051 C 924.570923 700.525757 926.674683 706.843628 927.525024 711.615051 C 928.297852 715.951782 928.945923 722.613159 928.965088 726.418091 C 928.984253 730.223022 928.510864 736.298035 927.912964 739.918091 C 927.315063 743.538147 925.930298 748.974976 924.835693 752 C 923.741211 755.025024 921.477051 760.069824 919.804443 763.210693 C 918.070679 766.466309 914.127197 771.339111 910.631592 774.545227 C 907.259277 777.638367 903.375 781.201477 902 782.463196 C 900.625 783.724976 898.230957 787.952515 896.67981 791.857788 C 895.128784 795.763062 891.716064 802.230164 889.096069 806.229126 C 886.476074 810.228149 881.634277 816.875 878.336548 821 C 875.038818 825.125 868.395874 832.225037 863.574463 836.777832 C 858.753052 841.330627 852.263916 846.781555 849.154175 848.890991 C 846.044312 851.000366 840.596802 854.190125 837.048462 855.979248 C 833.500122 857.768433 826.525024 860.705322 821.548462 862.505615 C 816.571777 864.305908 807.775024 866.9375 802 868.353455 C 796.224976 869.769409 786.901001 871.617554 781.280029 872.460449 C 775.65918 873.303345 761.709106 874.256287 750.280029 874.578125 C 738.851074 874.900024 728.283081 875.622681 726.795776 876.184082 C 725.308472 876.745422 721.372559 880.71936 718.049438 885.015137 C 714.726318 889.310791 709.193237 895.381714 705.753784 898.505981 C 702.314209 901.630371 694.775024 907.367615 689 911.255493 C 683.224976 915.143433 673.362793 920.778137 667.083923 923.777039 C 660.805115 926.77594 649.036255 931.41571 640.930847 934.087646 C 632.8255 936.759583 620.637756 940.09314 613.846924 941.495483 C 606.219849 943.070557 596.241272 944.286621 587.743408 944.676575 C 579.052185 945.075439 570.26239 944.856445 563.872009 944.08197 C 558.308899 943.407715 550.446289 942.009277 546.399536 940.974304 C 542.352783 939.939331 534.879089 937.15918 529.791321 934.796265 C 524.703613 932.43335 518.056702 928.891052 515.020447 926.924561 C 511.984192 924.958008 506.401001 920.71521 502.613403 917.496033 C 496.141785 911.995667 495.591736 911.729004 493.485718 913.071472 C 492.253113 913.857178 487.927063 917.929321 483.872314 922.12085 C 479.817566 926.312256 473.349976 931.768677 469.5 934.246216 C 465.650024 936.723755 457.860657 941.074463 452.190369 943.914429 C 446.520081 946.754456 437.970093 950.374817 433.190369 951.959717 C 428.410645 953.544678 420.450012 955.325806 415.5 955.917847 C 410.549988 956.509949 401.099976 956.955261 394.5 956.907471 Z M 399.5 940.589966 C 413.050964 940.295776 418.122375 939.776855 424.496338 938.032166 C 428.894348 936.828369 437.219299 933.519287 442.996338 930.678711 C 448.773376 927.838196 456.650024 923.402954 460.5 920.822754 C 464.349976 918.242554 470.875 912.683655 475 908.469666 C 479.125 904.255737 484.108521 899.770325 486.074524 898.502197 C 488.451599 896.968872 490.843933 893.902344 493.215942 889.348267 C 495.177673 885.581665 497.971497 879.169556 499.424377 875.098999 C 500.877258 871.028381 501.938599 867.335022 501.782959 866.891479 C 501.627319 866.447937 499.025024 867.365112 496 868.929749 C 492.974976 870.494385 484.650024 875.250488 477.5 879.498901 C 470.349976 883.747314 460.538208 889.214722 455.695984 891.648804 C 450.853821 894.082825 442.822998 897.437561 437.84967 899.10376 C 432.876404 900.769958 425.436096 902.778259 421.315674 903.56665 C 417.195313 904.35498 408.943054 905 402.977417 905 C 397.011719 905 388.974609 904.33606 385.117126 903.524658 C 381.259583 902.713196 374.909851 900.933472 371.006653 899.569824 C 367.103394 898.206055 360.667603 895.295166 356.704895 893.101196 C 352.742188 890.907227 345.5625 886.386841 340.75 883.05603 C 335.9375 879.72522 328.0625 874.263123 323.25 870.918091 C 318.4375 867.572998 310.450012 862.78595 305.5 860.280151 C 300.549988 857.774414 294.025024 854.855103 291 853.792847 C 287.974976 852.730469 284.0224 851.606201 282.21637 851.294373 C 278.9328 850.727417 278.9328 850.727417 279.599182 855.113708 C 279.965698 857.526123 281.373718 863.099976 282.728088 867.5 C 284.082458 871.900024 287.233398 879.401367 289.730225 884.1698 C 292.22699 888.938171 296.169617 895.260132 298.491577 898.218567 C 301.54248 902.105713 303.793152 903.921753 306.606689 904.766479 C 308.747986 905.409302 312.767029 907.412354 315.537903 909.217651 C 318.308716 911.022949 324.365967 915.353821 328.998352 918.841858 C 333.630798 922.329834 339.913757 926.429321 342.960449 927.951782 C 346.007202 929.474243 353.082397 932.338074 358.683167 934.315857 C 364.283936 936.29364 371.933899 938.597412 375.683167 939.435425 C 380.778809 940.574341 386.792419 940.865845 399.5 940.589966 Z M 579.573792 928.890991 C 587.511475 928.957153 596.350708 928.368896 602.073792 927.393433 C 607.258179 926.509888 615.549988 924.739746 620.5 923.459961 C 625.450012 922.180115 633.775024 919.707397 639 917.965088 C 644.224976 916.222778 653.462646 912.446594 659.528137 909.573608 C 665.593628 906.700562 674.818604 901.489502 680.028137 897.99353 C 685.237671 894.497437 692.875 888.182617 697 883.960571 C 701.125 879.738525 707.645264 872.830322 711.48938 868.609009 C 715.333496 864.387695 719.095825 859.756104 719.850098 858.316589 C 720.60437 856.877075 722.317505 852.504517 723.657227 848.59967 C 724.996948 844.694824 726.755127 838.395386 727.564209 834.600952 C 728.373291 830.806458 728.813721 827.480408 728.543091 827.209717 C 728.272339 826.939026 725.67688 828.560181 722.775391 830.812378 C 719.873901 833.064575 713.675049 838.097168 709 841.996094 C 704.324951 845.894958 696.674988 851.707581 692 854.913086 C 687.325012 858.11853 680.577026 862.21167 677.004456 864.008911 C 673.431946 865.806152 668.031921 868.136841 665.004456 869.188171 C 661.97699 870.239502 656.349976 871.774536 652.5 872.599426 C 648.134949 873.534668 640.230042 874.092712 631.5 874.081909 C 622.766602 874.071167 612.421509 873.313232 604 872.0672 C 596.575012 870.968567 583.299988 868.678345 574.5 866.977783 C 565.700012 865.277283 554.900024 863.219238 550.5 862.404297 C 546.099976 861.589417 539.56665 860.658569 535.981384 860.335693 C 529.46283 859.748718 529.46283 859.748718 524.06543 868.62439 C 521.096863 873.505981 515.480225 881.775024 511.584045 887 C 507.687805 892.224976 504.375916 896.951294 504.224304 897.502808 C 504.072632 898.054321 505.005127 899.179321 506.296387 900.002808 C 507.587708 900.826294 511.316833 903.75 514.583374 906.5 C 517.849854 909.25 523.695496 913.413086 527.573669 915.751404 C 531.451843 918.089661 538.302063 921.344849 542.796448 922.985046 C 547.290833 924.625305 554.462708 926.600647 558.734009 927.374695 C 563.00531 928.148743 572.383179 928.831055 579.573792 928.890991 Z M 270.833313 903.864258 C 277.616638 903.938904 283.016663 903.628784 282.833313 903.174988 C 282.650024 902.721252 279.911499 898.558716 276.747742 893.924988 C 273.583984 889.29126 269.430542 881.900024 267.517822 877.5 C 265.605103 873.099976 263.072937 865.325684 261.890747 860.223633 C 260.145203 852.690552 259.436707 851.037903 258.120667 851.42926 C 257.229309 851.694336 249.974976 853.555298 242 855.564697 C 234.025024 857.574219 223.450012 859.841003 218.5 860.602051 C 213.549988 861.363159 205.450012 861.988953 200.5 861.992798 C 195.549988 861.996582 188.027405 861.335144 183.783081 860.522949 C 179.538757 859.710815 173.467987 858.169189 170.29245 857.097168 C 167.116913 856.025085 164.364777 855.30188 164.176575 855.490112 C 163.988403 855.678284 166.114868 858.73407 168.9021 862.280762 C 171.689301 865.827393 176.789063 871.184875 180.234863 874.186279 C 183.680695 877.187622 188.984009 881.461304 192.020081 883.68335 C 195.056091 885.905396 200.006104 889.102478 203.020081 890.788086 C 206.034058 892.473633 212.549988 895.016479 217.5 896.438965 C 222.450012 897.861328 230.549988 899.739197 235.5 900.611938 C 240.450012 901.484619 247.650024 902.542847 251.5 902.963562 C 255.349976 903.384277 264.049988 903.789551 270.833313 903.864258 Z M 406.5 892.503174 C 412 892.252808 419.913879 891.174316 424.086426 890.106689 C 428.258972 889.039063 435.073547 886.844971 439.229858 885.231079 C 443.386169 883.617188 450.548889 880.262573 455.147034 877.776489 C 459.745117 875.290283 467.555603 870.804932 472.503601 867.809082 C 477.451599 864.813171 485.325012 860.296387 490 857.77179 C 494.674988 855.247192 502.099976 851.903259 506.5 850.34082 C 513.817322 847.742432 515.609375 847.509155 527.5 847.607605 C 538.072266 847.695129 544.141663 848.414795 560 851.461182 C 570.724976 853.521484 586.924988 856.505676 596 858.092712 C 605.075012 859.679688 618.067017 861.280273 624.871094 861.649536 C 632.760193 862.077698 640.006165 861.895508 644.871094 861.146606 C 649.067017 860.500732 655.899048 858.846069 660.053467 857.469482 C 664.207886 856.092896 670.968994 853.050659 675.078186 850.708984 C 679.187378 848.367249 685.91333 843.915466 690.024719 840.816101 C 694.136108 837.716736 700.650024 832.5354 704.5 829.302002 C 708.349976 826.068542 714.591553 821.057068 718.370117 818.165283 C 722.14856 815.27356 727.920898 811.554321 731.197388 809.90033 C 734.473877 808.246338 740.607422 806.038208 744.827393 804.993286 C 749.047363 803.948486 758.574951 802.40564 766 801.564819 C 773.425049 800.72406 784 799.550171 789.5 798.956238 C 795 798.362305 804.675049 797.214783 811 796.406189 C 817.324951 795.597656 827.675049 794.034302 834 792.932129 C 840.324951 791.829956 848.875 790.006958 853 788.881104 C 857.125 787.755249 865 785.251526 870.5 783.317383 C 876 781.38324 881.625 779.058044 883 778.15033 C 884.375 777.242676 889.737305 772.39856 894.91626 767.385681 C 901.302979 761.203857 905.269409 756.418823 907.244141 752.51355 C 908.845337 749.346802 910.78772 743.773254 911.560425 740.127869 C 912.33313 736.482544 912.973145 730.523926 912.982666 726.886475 C 912.992188 723.249084 912.545166 717.874329 911.989136 714.942627 C 911.433105 712.010986 909.555908 706.526489 907.817505 702.754944 C 905.555176 697.846802 902.99707 694.361084 898.817871 690.491882 C 895.606567 687.518738 890.02124 683.432068 886.40625 681.4104 C 882.791138 679.388733 876.387329 676.64032 872.175537 675.302856 C 867.963745 673.965332 861.588745 672.265015 858.008911 671.524292 C 854.428955 670.783569 849.146606 670.025085 846.270386 669.838806 C 843.394043 669.652466 840.973755 669.884705 840.891968 670.354919 C 840.810059 670.825134 843.197632 674.214294 846.19751 677.886414 C 850.501709 683.155029 853.492432 685.595886 860.379517 689.461304 C 866.230957 692.745422 871.02832 696.413391 874.93689 700.591675 C 878.143311 704.019348 882.056641 709.450867 883.633301 712.661865 C 886.144043 717.775146 886.5 719.617371 886.5 727.5 C 886.5 735.112488 886.117065 737.249817 884.016113 741.363464 C 882.649902 744.03833 879.133667 748.419006 876.202148 751.098206 C 873.27063 753.777466 867.627197 757.509399 863.661133 759.391479 C 859.69519 761.273499 851.73645 764.385803 845.975098 766.307739 C 840.213867 768.229614 831.224976 770.711243 826 771.822327 C 820.775024 772.933472 810.425049 774.534912 803 775.381165 C 795.574951 776.227356 781.849976 777.395447 772.5 777.97699 C 763.150024 778.558472 750.00415 779.496887 743.286987 780.062195 C 736.569946 780.627563 728.469971 781.746277 725.286987 782.548279 C 722.104126 783.35022 716.574951 785.487671 713 787.298035 C 709.425049 789.108459 699.300049 795.486206 690.5 801.470825 C 681.700012 807.455444 669.518738 814.748779 663.430481 817.678162 C 657.342224 820.607544 648.342224 824.015869 643.430481 825.252197 C 635.913391 827.144287 631.809448 827.5 617.5 827.5 C 606.424744 827.5 596.27063 826.880371 588.364685 825.722046 C 581.690247 824.744202 569.990234 822.61438 562.364685 820.989014 C 554.739075 819.36377 542.882813 817.052856 536.017334 815.85376 C 525.608887 814.035767 522.5224 813.846924 517.442627 814.717041 C 513.381653 815.412598 504.374084 819.027222 490.425293 825.558777 C 478.916382 830.947815 465 837.079102 459.5 839.18396 C 454 841.288818 445 844.124268 439.5 845.484985 C 434 846.845703 424.356628 848.458618 418.070251 849.069336 C 409.78241 849.87439 404.107239 849.880859 397.424744 849.092773 C 392.356018 848.494995 385.124451 846.952087 381.354492 845.664063 C 377.584534 844.376099 370.450012 841.262573 365.5 838.745117 C 360.549988 836.227722 350.650024 830.926147 343.5 826.963806 C 336.349976 823.001465 326.597168 818.038513 321.827087 815.934937 C 317.056946 813.83136 310.382324 811.53772 306.994507 810.838013 C 303.60675 810.138245 296.034546 809.627075 290.167419 809.702026 C 282.211853 809.803589 275.940918 810.639648 265.5 812.990662 C 257.799988 814.724487 246.541565 816.523193 240.481201 816.987732 C 234.420837 817.452271 224.74585 817.451782 218.981201 816.986511 C 212.684387 816.478333 205.306213 815.124695 200.5 813.595886 C 196.099976 812.196289 189.636658 809.352173 186.136963 807.275574 C 181.841034 804.726563 177.022491 800.413879 171.304169 794 C 166.645813 788.775024 160.558258 782.084167 157.776306 779.131531 C 154.556244 775.713928 150.498199 772.737549 146.6091 770.94104 C 143.249084 769.388916 132.527649 765.862305 122.783661 763.104065 C 113.039703 760.345825 102.309113 756.720581 98.937958 755.047974 C 95.566803 753.375366 91.053497 750.542786 88.908447 748.753418 C 86.763367 746.96405 82.980927 742.799988 80.502991 739.5 C 78.025055 736.200012 75.068115 731.040283 73.932037 728.033936 C 72.795929 725.027588 71.168488 719.193237 70.315521 715.068604 C 69.410706 710.69342 68.991089 705.375427 69.308197 702.302734 C 69.607178 699.406067 70.87915 695.208069 72.134857 692.973816 C 73.390564 690.739624 76.432434 687.577332 78.894562 685.946472 C 81.35672 684.315613 87.402496 681.771423 92.329651 680.292725 C 99.248199 678.21637 102.052307 676.817322 104.644073 674.148682 C 106.489838 672.248169 108 670.254456 108 669.71814 C 108 669.113037 103.921234 668.93988 97.25 669.261719 C 89.31192 669.644714 84.610718 670.445068 79.277222 672.32135 C 75.304688 673.718872 68.933319 676.502441 65.118622 678.507019 C 61.303925 680.511597 56.397003 683.680237 54.214386 685.548523 C 52.031738 687.416748 49.316284 690.923157 48.179993 693.340454 C 47.043701 695.757813 45.358551 701.732605 44.435211 706.617798 C 43.223206 713.030151 42.9216 718.141663 43.350555 725 C 43.677338 730.224976 44.681152 737.424988 45.581207 741 C 46.481293 744.575012 48.216248 749.330566 49.436737 751.567993 C 50.657196 753.805359 54.216553 758.74054 57.346436 762.535034 C 62.624878 768.934387 63.741974 769.734985 72.768555 773.588196 C 78.12085 775.872986 89.25 779.864502 97.5 782.458191 C 105.75 785.051941 115.204132 788.671326 118.509155 790.501282 C 121.814178 792.331238 127.22287 796.679565 130.528442 800.164246 C 133.834015 803.648926 139.904877 810.988403 144.019287 816.474182 C 148.133667 821.959961 154.371185 829.501953 157.880402 833.234009 C 162.50882 838.156372 166.215698 840.976807 171.380402 843.505615 C 176.270813 845.900146 181.631073 847.514404 188.5 848.661377 C 197.131165 850.102539 200.005676 850.165894 209.5 849.124695 C 215.59198 848.456543 229.64679 845.600342 241 842.723328 C 258.886414 838.190674 262.774902 837.526489 271.5 837.51416 C 280.186035 837.501831 282.854187 837.944336 291.806274 840.88147 C 297.47467 842.741211 306.47467 846.503662 311.806274 849.242371 C 317.137817 851.981079 327.984375 858.784424 335.909729 864.360962 C 343.835022 869.937378 353.95459 876.69397 358.397522 879.375488 C 362.840454 882.057007 369.696045 885.540466 373.632141 887.116577 C 377.568237 888.692627 384.32373 890.651855 388.644348 891.470337 C 393.75946 892.439331 399.988647 892.799683 406.5 892.503174 Z M 744.143066 858.984131 C 749.839355 858.975464 759.900024 858.52124 766.5 857.974792 C 773.099976 857.428345 781.875 856.329712 786 855.533325 C 790.125 854.736938 796.875 853.183594 801 852.081543 C 805.125 850.979492 811.713989 848.978516 815.642212 847.635132 C 819.570435 846.291626 825.723022 843.72998 829.314575 841.942505 C 832.90625 840.155029 838.692261 836.559937 842.172485 833.953369 C 845.652588 831.346802 852.561523 825.00354 857.525757 819.857117 C 862.489868 814.710693 868.897339 807.157471 871.764526 803.072205 C 874.631836 798.986938 876.848877 795.515564 876.691528 795.358154 C 876.534058 795.200684 871.251587 796.635315 864.952637 798.546204 C 858.653687 800.457031 847.650024 803.103516 840.5 804.427124 C 833.349976 805.750854 822.324951 807.539734 816 808.402466 C 809.675049 809.265198 797.974976 810.645508 790 811.469849 C 782.025024 812.294189 771.675049 813.437988 767 814.011597 C 762.324951 814.585205 756.206421 815.509888 753.403198 816.066406 C 748.306274 817.078247 748.306274 817.078247 747.029053 824.289063 C 746.326538 828.255127 744.63501 834.650024 743.27002 838.5 C 741.905029 842.349976 739.510254 847.762207 737.948242 850.527039 C 736.386353 853.291931 734.810791 856.329407 734.447144 857.277039 C 733.847412 858.839905 734.748413 858.998535 744.143066 858.984131 Z M 132.366577 849.946228 C 132.843201 849.97583 133.015472 848.987488 132.74942 847.75 C 132.483368 846.512512 131.281128 843.267395 130.077789 840.538635 C 128.87442 837.809875 127.010132 832.409912 125.934937 828.538635 C 124.859711 824.667358 123.487793 818.684631 122.88623 815.243652 C 121.913422 809.679077 121.298309 808.552307 117.322968 805.053101 C 114.783844 802.818054 109.969727 800.057068 106.176727 798.6604 C 102.504517 797.308289 93.032288 794.111755 85.127289 791.557068 C 77.22229 789.002319 70.524109 787.142578 70.242432 787.424255 C 69.960724 787.705933 71.365753 791.246399 73.364716 795.291931 C 75.363647 799.337463 79.662445 806.664307 82.917633 811.57373 C 86.172791 816.483154 91.113708 823.169556 93.897461 826.432373 C 96.681213 829.69519 101.330597 834.320679 104.229401 836.711182 C 107.128235 839.101746 111.975006 842.245117 115 843.696411 C 118.024994 845.147766 122.975006 847.13562 126 848.113831 C 129.024994 849.092041 131.889954 849.916626 132.366577 849.946228 Z M 630.5 622.474365 C 618.099976 623.661621 609.325012 624.69873 603 625.545044 C 596.674988 626.391357 584.829285 628.709534 576.676208 630.696472 C 561.852356 634.309082 561.852356 634.309082 557.055847 641.404541 C 554.417786 645.307068 549.28717 651.704895 545.654541 655.622009 L 539.049744 662.744019 L 545.081055 667.482483 C 548.398254 670.088684 550.931519 672.401855 550.710449 672.622925 C 550.48938 672.843933 545.176575 670.825562 538.904236 668.137573 C 532.631897 665.449585 522.549988 661.659912 516.5 659.716125 C 510.450012 657.772278 500.325012 655.040649 494 653.645813 C 487.674988 652.250977 477.775024 650.522583 472 649.804871 C 466.224976 649.087219 453.400024 648.5 443.5 648.5 C 433.599976 648.5 420.775024 649.093506 415 649.818909 C 409.224976 650.544312 399.131104 652.284851 392.569153 653.686829 C 386.007202 655.088806 375.432251 658.015808 369.069153 660.191345 C 362.706116 662.366882 356.599976 664.400391 355.5 664.710266 C 354.400024 665.020142 355.299988 663.944092 357.5 662.319031 C 359.700012 660.69397 363.525024 658.161011 366 656.690308 C 368.474976 655.219604 371.107483 653.620728 371.850037 653.137268 C 372.894653 652.457153 372.102966 650.896667 368.350037 646.238586 C 365.682495 642.927673 361.53125 636.523132 359.125 632.006165 C 355.75946 625.688416 354.028992 623.498962 351.625 622.516907 C 349.90625 621.814758 342.875 619.847229 336 618.144592 C 329.125 616.441956 318.099976 614.128784 311.5 613.004211 C 304.900024 611.879639 295.968689 610.673584 291.652588 610.324036 C 287.336487 609.974487 284.411499 609.368835 285.152588 608.978088 C 285.893677 608.587341 289.650024 607.515564 293.5 606.596375 C 297.349976 605.677185 304.887512 604.558838 310.25 604.111084 C 315.612488 603.66333 324.387512 603.660828 329.75 604.105408 C 335.112488 604.549988 341.285461 605.360229 343.467712 605.905823 C 345.649963 606.451477 347.601074 606.732239 347.803467 606.529846 C 348.005859 606.327454 347.615295 602.637939 346.935486 598.330933 C 346.255737 594.023926 345.346069 589.534302 344.914063 588.354004 C 344.256348 586.557129 342.531921 585.907715 334.31427 584.362122 C 327.644592 583.107666 319.854065 582.513672 310 582.508118 C 300.493958 582.502808 291.539246 583.149109 284 584.384644 C 277.674988 585.421204 267.875427 587.560791 262.223206 589.139221 C 256.570984 590.717651 247.497253 593.772766 242.059326 595.928345 C 236.621399 598.083923 228.020691 601.929077 222.946655 604.473145 C 217.872559 607.017212 209.396301 611.620483 204.110535 614.702576 C 198.824768 617.784729 190.224976 623.234192 185 626.8125 C 179.774994 630.390808 171.299957 636.689575 166.166565 640.809692 C 161.033142 644.929871 146.4375 657.555969 133.73175 668.867676 C 121.026031 680.179443 105.996155 694.113892 100.332031 699.833191 C 93.542145 706.689209 89.120758 712.097778 87.354034 715.708801 C 84.674438 721.18573 84.674438 721.18573 87.297333 726.53363 C 88.739899 729.475037 91.86438 733.910645 94.240601 736.390625 C 96.7388 738.997864 101.289642 742.169312 105.030518 743.910034 C 108.588715 745.565735 119.535919 749.207336 129.357605 752.002441 C 139.179291 754.797546 150.060272 758.471619 153.537598 760.167053 C 157.014893 761.862549 162.028961 765.332642 164.679962 767.878418 C 167.330994 770.424194 171.865356 775.291077 174.756348 778.693787 C 177.647339 782.096436 182.411774 787.318176 185.343994 790.297668 C 188.428467 793.431824 193.388794 797.050659 197.114014 798.884583 C 200.779541 800.689148 207.335022 802.748901 212.334106 803.666809 C 218.930359 804.877991 224.398132 805.135376 234.307739 804.701172 C 242.908813 804.32428 251.676208 803.207031 259.5 801.490723 C 266.099976 800.042908 274.752258 798.372803 278.727234 797.779419 C 282.706177 797.185486 291.040649 796.95105 297.270508 797.257874 C 306.302368 797.702698 310.529785 798.459534 318.213989 801.007568 C 323.89093 802.890015 334.952332 808.070251 345.170715 813.631836 C 354.701843 818.819336 367.519958 825.543945 373.655518 828.575317 C 379.791077 831.606812 387.666077 834.73938 391.155518 835.536743 C 395.72229 836.5802 401.422852 836.858643 411.5 836.53064 C 421.7724 836.196289 428.166748 835.418579 435.515625 833.609619 C 441.024231 832.253723 450.249268 829.310303 456.015625 827.068604 C 461.782043 824.827026 475.049988 818.915649 485.5 813.932251 C 495.950012 808.948853 507.312378 804.160828 510.749756 803.292114 C 515.399109 802.117188 519.624207 801.860535 527.249756 802.289917 C 532.88739 802.607422 542.900024 804.028931 549.5 805.448914 C 556.099976 806.868896 565.549988 808.895752 570.5 809.953064 C 575.450012 811.010376 584.577942 812.57843 590.784363 813.437744 C 596.990784 814.296997 608.956299 815 617.37439 815 C 629.444336 815 634.352295 814.573486 640.590027 812.982422 C 644.940491 811.872681 653 808.758728 658.5 806.062439 C 664 803.366211 674.575012 796.99054 682 791.894348 C 689.424988 786.798218 698.875 780.675232 703 778.287781 C 707.125 775.90033 713.425049 773.037415 717 771.92572 C 720.574951 770.814026 728.224976 769.262146 734 768.477112 C 739.775024 767.692078 753.050049 766.571045 763.5 765.985962 C 773.949951 765.400818 789.018555 764.236755 796.985596 763.39917 C 804.952637 762.561523 814.708252 761.256836 818.664917 760.499817 C 822.62146 759.742798 829.37793 757.721558 833.679321 756.008179 C 837.980713 754.294739 844.559814 751.083618 848.299683 748.872253 C 852.039551 746.66095 856.596558 743.537109 858.426514 741.93042 C 860.256348 740.32373 862.316895 737.649231 863.005371 735.987 C 864.133667 733.263123 863.953735 732.349548 861.183594 726.732422 C 859.493042 723.304565 853.014404 713.75 846.786499 705.5 C 840.558594 697.25 831.286377 685.099976 826.181641 678.5 C 821.076904 671.900024 814.929321 664.924988 812.520386 663 C 810.11145 661.075012 803.496338 655.26947 797.820313 650.098877 C 792.144165 644.928284 783.449951 637.555786 778.5 633.715576 C 773.550049 629.875427 764.324951 623.266418 758 619.028992 C 751.675049 614.791565 741.550049 608.584778 735.5 605.236206 C 729.449951 601.887573 717.074951 596.378479 708 592.993652 C 698.925049 589.608887 685.980408 585.319702 679.234192 583.462158 C 672.487976 581.604614 661.463013 579.278198 654.734192 578.292358 C 646.331665 577.06134 636.549255 576.5 623.5 576.5 C 610.409668 576.5 600.672424 577.06073 592.19397 578.302856 C 585.42572 579.294434 579.300598 580.331177 578.582581 580.606689 C 577.781616 580.914063 577.033447 583.730286 576.646362 587.894897 C 576.299438 591.627869 574.843262 599.141174 573.410461 604.591064 C 571.977661 610.040955 570.575562 615.492065 570.294739 616.704651 C 569.816528 618.769531 570.028748 618.864624 573.64209 618.204651 C 575.763916 617.817078 584.924988 617.5 594 617.5 C 608.230286 617.5 611.87561 617.842163 620.5 619.987183 L 630.5 622.474365 Z M 524.146118 652.883118 C 525.051453 652.947388 529.188232 649.390076 533.338867 644.977905 C 537.489502 640.565735 543.025757 633.521851 545.641602 629.32489 C 548.257507 625.127869 551.869263 618.050293 553.667786 613.596985 C 555.466248 609.143616 557.739258 602.125 558.718872 598 C 560.014526 592.544189 560.5 586.411682 560.5 575.5 C 560.5 563.304077 560.080933 558.817566 558.258301 551.5 C 557.02533 546.549988 553.964966 538.250122 551.45752 533.055786 C 548.950012 527.861511 544.797546 520.661499 542.229736 517.055786 C 539.661987 513.450134 534.452637 507.459045 530.653442 503.74231 C 526.854248 500.025574 520.71814 494.971802 517.0177 492.51178 C 513.317322 490.051758 506.944092 486.450195 502.855103 484.508301 C 498.766052 482.566467 490.713379 479.765198 484.960266 478.283325 C 476.168701 476.01886 472.346375 475.584717 461 475.562012 C 449.541138 475.539063 445.912476 475.942749 437 478.232178 C 430.668091 479.858643 422.514221 482.929016 416.45929 485.966797 C 410.936951 488.737427 402.797241 493.901733 398.371033 497.443115 C 393.944885 500.984497 387.754333 507.022217 384.614319 510.860291 C 381.474304 514.698303 376.750183 521.424133 374.116272 525.80658 C 371.4823 530.189026 367.930908 537.987854 366.224304 543.137329 C 364.517639 548.286804 362.6474 555.424988 362.068176 559 C 361.489014 562.575012 361.011719 570.533081 361.007568 576.684631 C 361.003418 582.836182 361.646606 590.943176 362.436951 594.700195 C 363.227234 598.457214 365.083069 604.899109 366.560913 609.015564 C 368.038818 613.132019 370.379456 618.75 371.762451 621.5 C 373.145386 624.25 375.967346 628.974976 378.033447 632 C 380.099548 635.025024 383.299744 639.218018 385.14502 641.317871 C 388.5 645.135742 388.5 645.135742 399.128662 641.5672 C 404.974487 639.604492 415.324463 637.047424 422.128662 635.884888 C 432.73407 634.072876 437.069397 633.848328 452.5 634.311584 C 465.183716 634.692383 473.212891 635.451172 479.685242 636.880676 C 484.737122 637.99646 493.062134 640.304382 498.185242 642.00946 C 503.30835 643.714539 510.875 646.832336 515 648.937866 C 519.125 651.043457 523.240723 652.818787 524.146118 652.883118 Z M 388 614.239258 C 386.625 614.53125 384.074829 614.368652 382.332886 613.877991 C 380.591003 613.387268 378.036926 611.644226 376.657227 610.004456 C 375.277466 608.364746 373.605164 604.594727 372.940918 601.626648 C 372.276733 598.65863 371.935486 593.791443 372.182678 590.810791 C 372.429871 587.8302 373.634766 583.320251 374.860229 580.788696 C 376.360779 577.689026 378.184631 575.66571 380.445313 574.592957 C 382.291626 573.716858 385.031128 573 386.533081 573 C 388.035034 573 390.731628 573.907104 392.525513 575.015747 C 394.319397 576.124451 396.617859 578.711914 397.63324 580.765747 C 399.011536 583.553589 399.482056 586.781006 399.489746 593.5 C 399.497498 600.304443 399.04303 603.419617 397.626709 606.269714 C 396.596436 608.343018 394.571411 610.864929 393.126709 611.87384 C 391.682007 612.882813 389.375 613.947266 388 614.239258 Z M 386 581.555542 C 382.21521 585.340393 381.520996 587.473816 381.212158 591.743347 C 380.933167 595.60083 381.315125 598.81842 382.344543 601.282166 C 383.43866 603.900818 384.519409 605 386 605 C 387.480591 605 388.56134 603.900818 389.655457 601.282166 C 390.684875 598.81842 391.066833 595.60083 390.787842 591.743347 C 390.479004 587.473816 389.78479 585.340393 388.183411 583.738953 L 386 581.555542 Z M 218 586.662231 C 218.825012 586.465088 221.940186 585.063477 224.922668 583.547546 C 227.905151 582.031616 234.191467 579.304382 238.892212 577.487 C 243.593018 575.669678 247.561768 573.804138 247.711731 573.34137 C 247.861633 572.878601 243.375366 569.523865 237.742188 565.886353 C 232.108948 562.24884 222.775024 556.333496 217 552.741211 C 211.224976 549.148865 200.424988 542.765137 193 538.555176 C 185.575012 534.345154 172.299988 527.395203 163.5 523.110901 C 154.700012 518.826538 138.502197 511.086365 127.504883 505.910583 C 116.507538 500.734741 103.983704 494.38385 99.674133 491.797424 C 95.364532 489.210999 88.685486 484.547241 84.831757 481.433594 C 80.978058 478.319946 74.912537 472.111145 71.352814 467.63623 C 67.793091 463.161316 63.311432 456.719116 61.393524 453.320251 C 59.475647 449.921387 56.799652 444.316345 55.44693 440.864563 C 54.094177 437.412781 52.261292 430.743713 51.37384 426.044312 C 50.257446 420.132751 49.933502 414.726807 50.32251 408.5 C 50.631744 403.549988 51.784149 396.142578 52.883423 392.039063 C 53.982697 387.935486 56.676727 380.96051 58.870148 376.539063 C 61.063599 372.117554 65.252625 365.744446 68.179108 362.376526 C 71.105591 359.008606 77.100006 353.156982 81.5 349.372864 C 85.899994 345.588684 93.930939 338.894287 99.346527 334.496277 C 105.267639 329.687805 110.22226 324.749084 111.77478 322.10791 C 113.906586 318.481323 114.332825 316.564209 114.220337 311.10791 C 114.130005 306.725037 112.188721 297.092041 108.45517 282.5 C 103.64093 263.684204 102.802612 259.052612 102.663116 250.5 C 102.560547 244.211182 103.168762 237.180542 104.302063 231.55542 C 105.293213 226.635864 107.467072 219.336914 109.132904 215.335327 C 110.798767 211.333862 113.937378 205.312622 116.107605 201.954834 C 118.277863 198.597046 123.303986 192.606201 127.276764 188.641968 C 131.249542 184.677856 137.424988 179.360352 141 176.825562 C 144.575012 174.290771 150.279327 170.766602 153.6763 168.994263 C 157.073273 167.221802 162.473297 165.143555 165.6763 164.375854 C 168.948669 163.591431 179.604736 162.744385 190 162.442139 C 200.174988 162.146362 212.465393 161.290039 217.311951 160.539185 C 222.301025 159.766235 228.446472 158.03772 231.477417 156.55481 C 234.685791 154.985107 239.168762 151.427734 242.665466 147.676758 C 246.300049 143.777832 250.716431 137.285767 254.378174 130.458984 C 257.611206 124.431519 262.168091 116.574951 264.504578 113 C 266.841064 109.425049 272.520874 102.848022 277.126343 98.384521 C 281.731873 93.920898 288.802979 88.135498 292.839905 85.527832 C 296.876831 82.920288 303.401855 79.307983 307.339905 77.500488 C 311.277954 75.693115 318.893066 72.81604 324.262329 71.107056 C 329.631592 69.398071 338.325317 67.237793 343.581665 66.306396 C 351.680542 64.871338 354.369019 64.792358 361.201843 65.788208 C 366.170776 66.512451 373.339233 68.627686 379.882446 71.300537 C 385.722107 73.685913 398.853455 79.933228 409.063171 85.183594 C 423.561157 92.63916 429.145447 94.994507 434.563171 95.939453 C 438.736938 96.667358 444.288208 96.87854 448.5 96.469727 C 452.349976 96.095947 458.424988 94.7771 462 93.538696 C 465.575012 92.300415 471.724182 89.661255 475.664856 87.67395 C 479.605591 85.686646 487.028931 81.514282 492.161255 78.402222 C 497.293579 75.290161 505.09436 70.799683 509.496399 68.423462 C 513.898376 66.047241 521.549988 62.547974 526.5 60.647461 C 531.450012 58.746826 540 56.218506 545.5 55.028931 C 553.1828 53.367065 558.905151 52.863892 570.194946 52.857178 C 582.112732 52.850098 586.36499 53.251831 592.694946 54.982788 C 596.987732 56.156616 603.78186 58.691895 607.79303 60.616821 C 612.492737 62.87207 617.562683 66.452881 622.050964 70.68689 C 626.496948 74.880981 632.321594 82.183594 638.156128 90.878662 C 643.183228 98.370361 649.622559 106.792236 652.465698 109.593872 C 655.702515 112.783325 659.478943 115.348145 662.567505 116.45459 C 666.541992 117.878418 672.646912 118.374268 694 119.007813 C 708.574951 119.440186 724.324951 120.353394 729 121.037354 C 733.675049 121.721191 739.910889 123.109985 742.857544 124.123535 C 745.804199 125.136963 750.619751 127.268677 753.558716 128.860474 C 756.497681 130.452271 761.736694 133.796387 765.201172 136.291748 C 768.665527 138.787109 774.283691 143.67981 777.686035 147.164429 C 781.088257 150.648926 785.630615 156.425049 787.780029 160 C 789.929565 163.574951 792.8573 169.436646 794.286255 173.025879 C 795.71521 176.615234 797.615723 183.365234 798.509766 188.025879 C 799.760498 194.545776 800.072632 201.342896 799.863281 217.5 C 799.649414 233.997192 799.944214 240.169189 801.238159 246.28479 C 802.144043 250.566406 804.020508 256.549438 805.408081 259.580322 C 806.878174 262.79126 810.344971 267.489502 813.715454 270.838501 C 816.896973 273.999512 823.324951 278.764038 828 281.42627 C 832.675049 284.088501 839.199951 288.17981 842.5 290.518127 C 845.800049 292.856384 851.571655 297.903442 855.325928 301.733765 C 859.080322 305.564087 863.492432 310.678467 865.130859 313.098999 C 866.769165 315.519531 869.37207 319.974976 870.914917 323 C 872.457886 326.025024 874.675781 331.424988 875.843506 335 C 877.011353 338.575012 878.896729 345.099976 880.033203 349.5 C 881.28772 354.356995 882.330811 362.457214 882.68811 370.117859 C 883.1427 379.86377 882.905762 384.378235 881.647095 389.951904 C 880.750732 393.920776 878.277954 400.880188 876.151733 405.417236 C 874.025635 409.954224 869.89917 417.228943 866.981812 421.583191 C 864.064575 425.937439 857.587646 433.581848 852.588867 438.570801 C 847.589966 443.559753 839.675049 450.148499 835 453.212463 C 830.324951 456.276428 818.625 463.04187 809 468.246765 C 799.375 473.451721 782.724976 482.337097 772 487.992126 C 761.275024 493.647217 744.849976 502.541748 735.5 507.757751 C 726.150024 512.973816 712.494141 520.840942 705.153687 525.240295 C 697.813171 529.639648 686.338196 536.844727 679.653687 541.251587 C 672.969177 545.658508 663.787476 552.154114 659.25 555.68634 C 654.712524 559.218567 651 562.513733 651 563.008972 C 651 563.504211 652.6875 564.20343 654.75 564.562866 C 656.8125 564.922241 663 566.251831 668.5 567.517517 C 674 568.783142 679.34198 569.971985 680.371155 570.159363 C 681.870361 570.432312 682.497864 569.506287 683.528381 565.5 C 684.526001 561.621643 685.922729 559.480286 689.7547 555.954407 C 692.527161 553.403381 701.014526 548.018494 709.097412 543.68219 C 717.018799 539.432556 738.021606 528.783752 755.770264 520.01825 C 773.518921 511.252747 805.693848 495.323914 827.270264 484.620972 C 848.846558 473.917969 870.754028 462.537292 875.953247 459.330505 C 881.406006 455.967407 888.611084 450.32605 892.97876 446 C 898.124756 440.903015 901.858032 436.048706 904.630737 430.849426 C 906.874634 426.641663 910.294556 419.216614 912.230713 414.349426 C 914.16687 409.482239 916.589355 401.906067 917.614136 397.51355 C 919.004395 391.553955 919.480103 385.589783 919.488647 374.01355 C 919.494873 365.481079 918.92627 354.574219 918.225098 349.776001 C 917.523926 344.977783 915.8302 337.102783 914.461182 332.276001 C 913.092285 327.449219 909.878906 319.226807 907.320435 314.004028 C 903.106323 305.401306 901.484985 303.329773 890.084351 291.982361 C 883.162964 285.093262 871.650024 274.115723 864.5 267.587891 C 857.349976 261.060059 848.671509 252.519775 845.214478 248.609497 C 841.757446 244.699341 837.356567 238.348877 835.434814 234.497559 C 833.512939 230.64624 831.460938 224.571289 830.874756 220.997559 C 830.288574 217.42395 829.749146 211.125 829.675903 207 C 829.602661 202.875 829.934204 192.252808 830.412598 183.39502 C 831.143188 169.869385 831.021362 166.133789 829.6521 160.070679 C 828.755493 156.099976 826.462891 149.253784 824.557495 144.857056 C 822.6521 140.460205 818.627808 133.157715 815.614624 128.62915 C 812.60144 124.100586 806.60144 117.018433 802.281372 112.890991 C 796.255981 107.134399 792.222778 104.309204 784.963379 100.759888 C 779.758545 98.215088 772.125 95.16394 768 93.979614 C 762.481445 92.395142 756.669189 91.69519 746 91.330078 C 738.025024 91.057129 724.300049 91.244263 715.5 91.745972 C 706.699951 92.247681 696.453064 92.342163 692.729065 91.956055 C 688.241394 91.490723 683.77478 90.179077 679.483765 88.06665 C 675.922852 86.313599 670.854614 82.768921 668.220947 80.189697 C 665.587341 77.610352 659.408569 69.425049 654.490295 62 C 648.419434 52.834839 642.650452 45.606201 636.524048 39.487793 C 630.34729 33.319092 624.704773 28.836792 618.64093 25.281738 C 612.549988 21.710815 607.394409 19.541748 602.14093 18.339844 C 596.610962 17.074707 590.079712 16.585327 578.5 16.568359 C 567.697266 16.552612 558.95813 17.129761 551.596191 18.344849 C 545.599121 19.334717 537.724121 21.221924 534.096191 22.538696 C 530.468262 23.855347 524.341675 26.557251 520.481445 28.542847 C 516.621277 30.528442 506.496277 37.129639 497.981445 43.212036 C 489.466675 49.294556 478.873169 56.025024 474.44043 58.168823 C 469.396301 60.608276 463.144348 62.660889 457.730225 63.655029 C 449.958313 65.082031 448.180176 65.091797 440.225464 63.750488 C 435.355652 62.929321 427.459229 60.662598 422.677795 58.713257 C 417.896301 56.763916 408.700256 52.365356 402.242126 48.938721 C 395.783936 45.512085 385.656677 40.269653 379.737 37.288818 C 373.817383 34.307983 365.805237 30.761963 361.93219 29.408813 C 356.325073 27.449829 352.914978 26.947998 345.19519 26.945679 C 337.963745 26.943604 333.151489 27.579956 326.258301 29.449951 C 321.175415 30.828735 313.300415 33.634399 308.758301 35.68457 C 304.216248 37.734741 297.125 41.189575 293 43.361938 C 288.875 45.534302 283.025024 48.98877 280 51.038696 C 276.974976 53.088501 271.77417 57.630859 268.442627 61.132813 C 265.111084 64.634766 260.786438 69.974976 258.832336 73 C 256.878235 76.025024 252.920776 82.775024 250.038086 88 C 247.155396 93.224976 242.740356 101.099976 240.226868 105.5 C 237.71344 109.900024 233.432556 116.549683 230.713806 120.2771 C 227.995056 124.004395 223.878296 128.604736 221.56543 130.499878 C 219.252563 132.395142 214.916687 135.062012 211.930115 136.426514 C 208.943542 137.790894 203.340332 139.427124 199.478577 140.0625 C 194.239319 140.924438 189.373108 140.936157 180.306488 140.108765 C 173.623627 139.498901 163.819458 139 158.51947 139 C 153.219452 139 145.646912 139.500366 141.691559 140.111938 C 137.736206 140.723511 132.024994 142.184326 129 143.358276 C 125.975006 144.532227 122.955139 145.434814 122.289215 145.364014 C 121.623291 145.293213 121.173279 145.546143 121.289215 145.926147 C 121.405151 146.30603 117.899994 149.54895 113.5 153.132446 C 109.100006 156.716064 102.048248 163.643311 97.829437 168.526367 C 93.610626 173.409546 88.400787 180.351196 86.252014 183.952393 C 84.103241 187.553589 80.939056 194.401489 79.22049 199.169922 C 77.501923 203.938354 75.582001 211.700806 74.95401 216.419922 C 74.109863 222.763306 74.101044 227.150635 74.920197 233.25 C 75.529572 237.787476 77.370361 247.125 79.010803 254 C 80.651245 260.875 82.897705 271.224976 84.00293 277 C 85.108185 282.775024 86.122131 290.875 86.256226 295 C 86.390289 299.125 86.187012 304.951355 85.804474 307.94751 C 85.417267 310.980042 83.465851 316.743042 81.402496 320.94751 C 78.329254 327.209717 75.977814 330.122986 67.638489 338 C 62.106842 343.224976 52.084869 352.944885 45.367462 359.599792 C 38.38797 366.514343 31.151367 374.795349 28.480865 378.923523 C 25.910614 382.896667 22.499084 389.033569 20.899658 392.560974 C 19.300262 396.08844 17.479828 402.415649 16.854309 406.62146 C 16.190338 411.085571 15.980927 418.296326 16.351135 423.945557 C 16.699921 429.267944 17.852173 437.012085 18.911682 441.154724 C 19.971191 445.297363 22.173279 451.631531 23.805176 455.230591 C 25.437073 458.829712 28.697388 464.637695 31.050293 468.137207 C 33.403198 471.636719 40.135681 479.263184 46.011353 485.084839 C 51.887024 490.906494 60.510651 498.208923 65.174988 501.312439 C 69.839325 504.416016 79.695587 509.830322 87.077789 513.344238 C 94.459991 516.858215 106.350006 522.612488 113.5 526.131592 C 120.649994 529.650635 133.024994 535.636353 141 539.433105 C 148.975006 543.229858 160.450012 549.005676 166.5 552.268188 C 172.549988 555.530762 184.024994 562.540466 192 567.845276 C 199.974976 573.150085 208.75 579.634766 211.5 582.255554 C 214.25 584.876404 217.174988 586.859375 218 586.662231 Z M 344.128662 569.073181 C 344.474426 568.757935 345.065491 565.632629 345.442139 562.128113 C 345.818726 558.623596 347.173157 551.64856 348.451965 546.628113 C 349.730774 541.607666 352.540588 533.420593 354.695984 528.434631 C 358.614868 519.369263 358.614868 519.369263 351.680725 510.934631 C 347.866943 506.295593 339.888306 497.099976 333.950439 490.5 C 328.012573 483.900024 316.707092 472.143738 308.827148 464.375 C 300.947205 456.606201 290.224976 446.460815 285 441.829712 C 279.775024 437.198608 271.674988 430.244385 267 426.375916 C 262.325012 422.507385 252.200012 414.642822 244.5 408.899048 C 236.799988 403.155273 223.770081 394.011108 215.544556 388.578613 C 207.319092 383.146118 193.594116 374.674561 185.044586 369.752869 C 176.495056 364.831177 160.5 356.363953 149.5 350.936829 C 138.5 345.509705 127.434814 340.308472 124.910736 339.37854 C 120.321472 337.687744 120.321472 337.687744 109.910736 346.395996 C 104.184814 351.185547 95.952728 358.118286 91.617188 361.802124 C 87.281647 365.485962 81.955627 370.726624 79.781586 373.44812 C 77.607574 376.169556 74.486664 381.054932 72.846252 384.304565 C 71.205872 387.554199 68.994385 393.612 67.931854 397.766418 C 66.869324 401.920837 66 408.550964 66 412.5 C 66 416.449036 66.88739 423.14978 67.971985 427.390503 C 69.05661 431.631287 71.601318 438.254822 73.626923 442.109558 C 75.652527 445.964294 78.87561 451.229065 80.789368 453.809082 C 82.703094 456.389099 87.327515 461.486267 91.065826 465.136169 C 94.804138 468.786072 101.158722 473.82666 105.187164 476.337463 C 109.215576 478.848267 120.052643 484.511658 129.269531 488.922729 C 138.486389 493.333801 151.971863 499.768188 159.237213 503.221436 C 166.502594 506.674622 179.199615 513.036011 187.452881 517.357849 C 195.706116 521.679626 209.128723 529.22998 217.280884 534.136353 C 225.432983 539.042725 236.692261 546.031982 242.301453 549.668091 C 247.910645 553.304138 256.487915 558.951843 261.362 562.218567 C 270.223938 568.15802 270.223938 568.15802 278.362 567.087769 C 282.837891 566.499207 291 565.729065 296.5 565.376465 C 302.265991 565.006836 311.580811 565.251831 318.5 565.955139 C 325.099976 566.626038 333.424988 567.731018 337 568.410706 C 340.575012 569.090332 343.782898 569.388489 344.128662 569.073181 Z M 403.5 566.895264 C 400.200012 566.866028 396.150024 566.370239 394.5 565.793457 C 392.849976 565.216675 390.037048 563.653931 388.248962 562.320679 C 386.460876 560.987427 384.299316 558.545654 383.445496 556.894531 C 382.591614 555.243408 381.64563 551.779175 381.343262 549.196228 C 381.01825 546.419922 381.410156 542.14917 382.30188 538.749695 C 383.131531 535.587097 384.995789 530.976501 386.444763 528.503967 C 387.893799 526.031494 391.296204 521.344666 394.005798 518.088806 C 396.715332 514.832947 401.534973 510.170105 404.716125 507.727051 C 407.897278 505.283936 413.104187 501.818542 416.28717 500.026123 C 419.470093 498.233704 424.797668 495.919556 428.126221 494.883606 C 431.5578 493.815552 437.062256 493.009521 440.839111 493.021973 C 445.169006 493.036255 448.94043 493.698059 451.616089 494.913086 C 453.879944 495.941162 456.883606 498.293762 458.290894 500.141174 C 459.698181 501.988525 461.375061 505.590637 462.017334 508.145935 C 462.912476 511.707397 462.906372 514.158264 461.991333 518.645935 C 461.334778 521.865662 459.399292 527.200012 457.690186 530.5 C 455.718079 534.307861 451.27948 539.822144 445.541382 545.592834 C 439.651733 551.516052 434.059875 556.045349 429.5 558.586121 C 425.650024 560.731323 419.575012 563.490417 416 564.717468 C 411.965515 566.102173 407.224182 566.928223 403.5 566.895264 Z M 584.177612 565.497742 C 587.654907 564.789124 594.851685 563.712219 600.17041 563.104675 C 605.489197 562.497131 614.167053 562 619.454651 562 C 629.06842 562 629.06842 562 635.165955 555.481689 C 638.519653 551.896667 645.502502 545.79126 650.683411 541.914185 C 655.86438 538.037048 666.492615 530.686218 674.301697 525.578918 C 682.110779 520.47168 695.025024 512.450928 703 507.755127 C 710.974976 503.059326 724.025024 495.630432 732 491.246521 C 739.974976 486.86261 754.824951 478.877014 765 473.500732 C 775.175049 468.124512 791.375 459.451477 801 454.227356 C 810.625 449.003296 822.166748 442.290955 826.648315 439.311035 C 831.130005 436.331177 837.510742 431.245667 840.827759 428.009949 C 844.144897 424.77417 849.181763 418.835754 852.020874 414.813354 C 854.859985 410.791016 858.666138 404.57428 860.479004 400.998352 C 862.291748 397.422424 864.50061 392.053223 865.387451 389.066833 C 866.38147 385.719849 867 379.956909 867 374.043396 C 867 366.811646 866.259766 361.378662 863.993164 351.974915 C 862.180298 344.453491 859.424316 336.323425 857.052246 331.5 C 854.88855 327.099976 850.835327 320.799988 848.045288 317.5 C 845.255127 314.200012 840.683716 309.587402 837.886597 307.249756 C 835.089478 304.912109 828.458252 300.448547 823.150513 297.33075 C 817.842651 294.212952 811.08728 289.846069 808.13855 287.626709 C 802.77832 283.592407 802.776367 283.591797 799.777466 285.312988 C 798.127686 286.259766 792.665283 289.795288 787.638916 293.169617 C 782.612549 296.543945 774.224976 302.332825 769 306.033752 C 763.775024 309.73468 755.449951 315.866638 750.5 319.660278 C 745.550049 323.453918 737.224976 329.975098 732 334.151733 C 726.775024 338.32843 717.511597 346.022156 711.414673 351.248962 C 705.317749 356.475708 694.292725 366.363159 686.914673 373.221008 C 679.536621 380.078796 668.325012 391.064941 662 397.634644 C 655.674988 404.204285 645.290283 415.41156 638.922913 422.539734 C 632.555481 429.667847 623.28363 440.450012 618.318726 446.5 C 613.353821 452.549988 605.497192 462.450012 600.859497 468.5 C 596.221802 474.549988 589.24115 484 585.346924 489.5 C 581.452759 495 575.014771 504.360413 571.040344 510.300964 C 563.814087 521.101868 563.814087 521.101868 566.462891 526.696167 C 567.919678 529.77301 570.194702 535.516785 571.518433 539.460144 C 572.842163 543.403503 574.619629 550.650635 575.468323 555.564941 C 576.317017 560.479187 577.201233 565.014404 577.433289 565.643066 C 577.746399 566.491516 579.484802 566.454041 584.177612 565.497742 Z M 403.144653 557.960876 C 405.149231 557.982361 409.681702 557.106628 413.216797 556.014771 C 416.751892 554.922852 422.536804 552.179932 426.072144 549.919312 C 429.607483 547.658691 434.692505 543.714539 437.372253 541.154541 C 440.052002 538.594543 444.134155 533.972168 446.443665 530.882568 C 448.753174 527.79303 451.455078 522.682739 452.447876 519.526428 C 453.962036 514.712524 454.062622 513.152344 453.072021 509.846008 C 452.293762 507.248352 450.801453 505.217285 448.695557 503.889282 C 446.070923 502.234253 444.24762 501.945251 438.489929 502.271545 C 433.285889 502.566467 429.800293 503.470398 424.960876 505.780029 C 421.375427 507.491211 415.480164 511.133362 411.860229 513.873718 C 408.240295 516.614075 403.420837 521.026062 401.150269 523.678101 C 398.8797 526.330139 395.664612 531.042603 394.005554 534.150208 C 392.346497 537.257813 390.715759 541.794495 390.381714 544.231689 C 389.948425 547.392761 390.255188 549.592834 391.451904 551.906982 C 392.374512 553.691162 394.562805 555.774414 396.314697 556.536316 C 398.06665 557.298279 401.140076 557.939331 403.144653 557.960876 Z M 556.5 507.943848 C 557.049988 507.936462 561.315186 502.208618 565.978149 495.21521 C 570.641113 488.221863 580.050964 475.075012 586.888916 466 C 593.726868 456.924988 604.746521 443.00531 611.377014 435.067383 C 618.007507 427.129395 630.243103 413.179382 638.567261 404.067383 C 646.891418 394.955322 659.314575 382.081177 666.174255 375.458191 C 673.033997 368.835205 683.521118 359.014771 689.479065 353.634949 C 695.436951 348.255127 705.979004 339.115051 712.905762 333.323669 C 719.832642 327.532227 732.474976 317.507446 741 311.046326 C 749.525024 304.585266 764.150024 294.073425 773.5 287.686768 C 782.849976 281.300049 791.318237 275.495361 792.318237 274.787354 C 794.046509 273.563599 793.979248 273.164673 790.959351 266.71875 C 789.122192 262.797485 786.976074 255.62793 785.870605 249.71875 C 784.378784 241.744019 783.900879 234.01001 783.694458 214.5 C 783.42981 189.5 783.42981 189.5 780.336792 181.392456 C 778.635498 176.933228 775.667358 170.820679 773.740845 167.809082 C 771.814331 164.797363 767.968018 160.063354 765.193604 157.28894 C 762.419312 154.514526 756.764893 149.980835 752.628296 147.214233 C 748.491821 144.44751 742.495728 141.199219 739.303711 139.99585 C 736.111694 138.79248 730.574951 137.367554 727 136.829224 C 723.425049 136.291016 708.125 135.463379 693 134.990112 C 677.875 134.516846 664.599976 133.870972 663.5 133.554688 C 661.853577 133.081421 660.148376 134.881958 653.854492 143.739868 C 649.649475 149.657959 641.510803 161.699951 635.768555 170.5 C 630.026367 179.300049 621.722229 192.574951 617.314941 200 C 612.907715 207.425049 606.107788 219.349976 602.204041 226.5 C 598.300293 233.650024 591.526733 246.699951 587.151733 255.5 C 582.776672 264.300049 576.280396 278.025024 572.715637 286 C 569.150818 293.974976 563.092834 308.375 559.253418 318 C 555.414063 327.625 549.478577 343.599976 546.063538 353.5 C 542.648499 363.400024 537.691711 378.700012 535.048401 387.5 C 532.405151 396.299988 528.342529 410.924988 526.020386 420 C 523.698242 429.075012 520.475525 442.575012 518.858765 450 C 517.242065 457.424988 515.662903 465.526794 515.349487 468.003967 C 514.783508 472.477783 514.808838 472.524109 519.139832 474.934814 C 521.537903 476.269653 525.974976 479.139465 529 481.312134 C 532.025024 483.484863 538.021545 488.690979 542.325623 492.881287 C 546.6297 497.071594 551.354736 502.177917 552.825623 504.228638 C 554.296509 506.279419 555.950012 507.951233 556.5 507.943848 Z M 366.17981 506.74115 C 366.55365 506.608521 369.036621 504.025024 371.697449 501 C 374.358337 497.974976 379.227417 492.971191 382.5177 489.880493 C 385.807983 486.789734 391.650024 482.109863 395.5 479.480713 C 399.349976 476.851563 405.794861 473.127502 409.82196 471.205017 C 416.660828 467.940247 417.100891 467.538086 416.491638 465.110596 C 416.132874 463.681152 413.790894 457.108948 411.287231 450.505798 C 408.783569 443.902588 404.600708 433.325012 401.992004 427 C 399.383362 420.674988 394.584839 409.650024 391.328735 402.5 C 388.072632 395.349976 381.780273 382.299988 377.345703 373.5 C 372.911194 364.700012 365.913696 351.424988 361.795776 344 C 357.677856 336.575012 350.317078 323.974976 345.438477 316 C 340.559814 308.025024 331.877441 294.525024 326.144287 286 C 320.411133 277.474976 311.395752 264.651001 306.110168 257.502319 C 300.824585 250.353516 291.837769 238.653564 286.139465 231.502319 C 280.441223 224.351074 270.316223 212.219727 263.639465 204.543945 C 256.962769 196.868164 247.674988 186.608276 243 181.744385 C 234.5 172.900879 234.5 172.900879 226.5 174.994507 C 220.251892 176.629639 213.463318 177.283325 195.5 177.979492 C 179.745575 178.590088 170.885986 179.364136 167.376526 180.436646 C 164.558594 181.297729 158.708588 184.312134 154.376526 187.135254 C 150.044434 189.958252 142.875183 195.920288 138.444855 200.384033 C 132.55896 206.314331 129.265045 210.685913 126.21344 216.616943 C 123.916504 221.081299 121.241333 228.050049 120.268585 232.103027 C 119.193939 236.580811 118.514587 243.2052 118.53717 248.986084 C 118.569092 257.157349 119.322205 261.391479 123.873596 278.98877 C 126.788177 290.257568 129.505524 302.591003 129.91214 306.396484 C 130.318756 310.201904 130.320801 315.382019 129.916687 317.907715 C 129.512543 320.433472 128.886017 323.662537 128.524353 325.083374 C 127.90567 327.51416 128.299133 327.848389 135.183411 330.739929 C 139.20752 332.430115 148.125 336.477783 155 339.734741 C 161.875 342.991638 173.125 348.714966 180 352.453186 C 186.875 356.191345 198.396301 362.781555 205.602844 367.098022 C 212.809448 371.414429 223.834473 378.392151 230.102844 382.604065 C 236.371277 386.815979 247.575012 394.772949 255 400.286255 C 262.424988 405.799561 273.597229 414.570984 279.827087 419.77832 C 286.057007 424.985657 296.182007 433.871521 302.327087 439.524658 C 308.472229 445.177856 318.966858 455.359924 325.648499 462.15155 C 332.3302 468.943237 341.791992 479 346.674744 484.5 C 351.557495 490 357.790649 497.308533 360.526245 500.74115 C 363.26178 504.173828 365.805908 506.87384 366.17981 506.74115 Z M 469.251343 459.592102 C 482.850037 461.444092 490.105957 463.042847 494.149048 464.339661 C 498.192078 465.636414 501.793701 466.42804 502.152649 466.098755 C 502.511597 465.769409 504.017334 459.663879 505.498779 452.530823 C 506.980164 445.397766 510.362793 430.910889 513.015686 420.33783 C 515.668579 409.764709 520.171326 393.325867 523.021851 383.807007 C 525.872314 374.288147 531.117615 358.174988 534.67804 348 C 538.238525 337.825012 544.110962 322.075012 547.727905 313 C 551.34491 303.924988 557.541016 289.300049 561.497009 280.5 C 565.453064 271.699951 572.629333 256.625 577.444214 247 C 582.259155 237.375 589.827515 222.974976 594.262878 215 C 598.698242 207.025024 606.026489 194.366455 610.547913 186.869995 C 615.069336 179.373413 623.504822 166.098389 629.293457 157.369995 C 635.082092 148.641479 641.970886 138.453125 644.601929 134.729248 C 649.385681 127.958496 649.385681 127.958496 646.942871 126.315552 C 645.599304 125.411987 642.429871 122.567749 639.899719 119.994995 C 637.369568 117.422241 631.08136 109.058472 625.925842 101.408691 C 620.770386 93.758911 614.298584 85.290039 611.544006 82.588867 C 608.78949 79.887695 603.826294 76.40979 600.514771 74.860107 C 597.203186 73.310425 591.345093 71.245483 587.496826 70.27124 C 583.366821 69.225708 576.812439 68.5 571.5 68.5 C 566.549988 68.5 558.532776 69.079712 553.683899 69.788208 C 548.835083 70.496704 540.624756 72.592896 535.438782 74.446533 C 530.252808 76.300049 521.845032 80.057861 516.754822 82.797241 C 511.664673 85.536621 503.224976 90.366943 498 93.531494 C 492.775024 96.695923 484.971497 100.997803 480.658875 103.091187 C 476.346313 105.184692 469.432983 107.932983 465.295959 109.19873 C 457.77417 111.5 457.77417 111.5 458.332092 119.5 C 458.638916 123.900024 459.346558 132.675049 459.904541 139 C 460.462585 145.324951 461.387146 156.800049 461.959106 164.5 C 462.531128 172.199951 463.471985 185.699951 464.049927 194.5 C 464.62793 203.300049 465.487915 217.474976 465.96106 226 C 466.434204 234.525024 467.592407 264.900024 468.534851 293.5 C 469.801086 331.925781 470.118225 360.391479 469.749878 402.546021 L 469.251343 459.592102 Z M 432.905701 462.623169 C 434.882568 462.302673 438.974976 461.597595 442 461.056274 C 445.025024 460.514893 449.299988 459.943298 451.5 459.786011 C 455.5 459.5 455.5 459.5 456.223999 452.5 C 456.622253 448.650024 457.230286 428.849976 457.575256 408.5 C 457.920288 388.150024 457.718262 351.25 457.126465 326.5 C 456.534668 301.75 455.561707 270.474976 454.964417 257 C 454.367126 243.525024 453.239807 221.25 452.459229 207.5 C 451.67865 193.75 450.565247 176.53894 449.984985 169.253174 C 449.404724 161.967407 448.269165 147.792358 447.461487 137.753174 C 446.653809 127.713867 445.76123 118.101807 445.477966 116.392822 C 444.979858 113.387451 444.759033 113.265869 438.731506 112.679321 C 435.304199 112.345703 429.799988 111.365723 426.5 110.501343 C 423.200012 109.637085 409.924988 103.630737 397 97.153931 C 384.075012 90.677246 370.799988 84.517578 367.5 83.466064 C 363.459167 82.178345 358.724487 81.569336 353 81.600952 C 346.792053 81.635254 341.938293 82.391846 335 84.406738 C 329.775024 85.92395 322.125 88.565796 318 90.277466 C 313.875 91.989014 307.935791 94.915527 304.801758 96.780762 C 301.667725 98.645996 295.739075 103.042725 291.627014 106.551392 C 287.514954 110.060059 282.14447 115.758789 279.692627 119.215332 C 277.240845 122.671875 273.072876 129.550049 270.430542 134.5 C 267.788269 139.449951 263.685181 146.476196 261.312622 150.113647 C 258.940063 153.751221 254.686951 158.889893 251.861328 161.532959 C 248.29834 164.865723 246.995972 166.72522 247.611877 167.600098 C 248.100342 168.294067 253.256775 173.955322 259.070557 180.180908 C 264.884399 186.406372 273.69165 196.224976 278.642212 202 C 283.592773 207.775024 292.127747 218.125 297.608826 225 C 303.089844 231.875 311.873352 243.349976 317.127625 250.5 C 322.381958 257.650024 331.696228 270.999023 337.82605 280.164551 C 343.955872 289.330078 352.739563 303.055115 357.345398 310.664612 C 361.951233 318.274048 368.72821 329.900024 372.405334 336.5 C 376.082397 343.099976 383.706909 357.724976 389.348694 369 C 394.990417 380.275024 402.358643 395.799988 405.722473 403.5 C 409.086304 411.200012 414.17218 423.349976 417.024414 430.5 C 419.876587 437.650024 423.807983 447.933838 425.760803 453.352905 C 429.31134 463.205811 429.31134 463.205811 432.905701 462.623169 Z"/>
</svg>
